# xmcd
#
# Track frame offsets:
# 150
# 17677
# 38784
# 56125
# 71723
# 87305
# 109866
# 129690
# 145662
# 161945
# 176690
#
# Disc length: 2560 seconds
#
# Revision: 0
# Processed by: cddbd v1.4PL0 Copyright (c) Steve Scherf et al.
# Submitted via: Audion 3.0.2 (http://www.panic.com/audion/)
#
DISCID=9e09fe0b
DTITLE=Andy y Lucas - Andy y Lucas
DYEAR=1900
DGENRE=
TTITLE0=Son de amores
TTITLE1=Tanto la queria
TTITLE2=La llama del amor
TTITLE3=Mirame a la cara
TTITLE4=Hasta los huesos
TTITLE5=El ritmo de Maria
TTITLE6=Dame un besito
TTITLE7=Caido del cielo
TTITLE8=Un rinconcito al sur
TTITLE9=Y en tu ventana
TTITLE10=Carta anonima-Ratoncitos coloraos
EXTD=
EXTT0=
EXTT1=
EXTT2=
EXTT3=
EXTT4=
EXTT5=
EXTT6=
EXTT7=
EXTT8=
EXTT9=
EXTT10=
PLAYORDER=
